<svg width="122" height="41" viewBox="0 0 122 41" fill="none" xmlns="http://www.w3.org/2000/svg">
<path d="M0.617188 4.64063C0.617188 2.43149 2.40805 0.640625 4.61719 0.640625H117.617C119.826 0.640625 121.617 2.43149 121.617 4.64062V36.6406C121.617 38.8498 119.826 40.6406 117.617 40.6406H4.61719C2.40805 40.6406 0.617188 38.8498 0.617188 36.6406V4.64063Z" fill="white" fill-opacity="0.5"/>
<path fill-rule="evenodd" clip-rule="evenodd" d="M28.6172 14.0952C25.0022 14.0952 22.0717 17.0257 22.0717 20.6406C22.0717 24.2556 25.0022 27.1861 28.6172 27.1861C32.2321 27.1861 35.1626 24.2556 35.1626 20.6406C35.1626 17.0257 32.2321 14.0952 28.6172 14.0952ZM20.6172 20.6406C20.6172 16.2223 24.1989 12.6406 28.6172 12.6406C33.0355 12.6406 36.6172 16.2223 36.6172 20.6406C36.6172 25.0589 33.0355 28.6406 28.6172 28.6406C24.1989 28.6406 20.6172 25.0589 20.6172 20.6406Z" fill="white"/>
<path fill-rule="evenodd" clip-rule="evenodd" d="M28.6172 19.6406C29.1695 19.6406 29.6172 20.0137 29.6172 20.474V23.8073C29.6172 24.2675 29.1695 24.6406 28.6172 24.6406C28.0649 24.6406 27.6172 24.2675 27.6172 23.8073V20.474C27.6172 20.0137 28.0649 19.6406 28.6172 19.6406Z" fill="white"/>
<path fill-rule="evenodd" clip-rule="evenodd" d="M27.6172 17.6406C27.6172 17.0883 28.0627 16.6406 28.6122 16.6406H28.6222C29.1717 16.6406 29.6172 17.0883 29.6172 17.6406C29.6172 18.1929 29.1717 18.6406 28.6222 18.6406H28.6122C28.0627 18.6406 27.6172 18.1929 27.6172 17.6406Z" fill="white"/>
<path d="M48.1855 15.6875L50.7422 22.9062L53.2852 15.6875H55.9785V25.6406H53.9209V22.9199L54.126 18.2236L51.4395 25.6406H50.0312L47.3516 18.2305L47.5566 22.9199V25.6406H45.5059V15.6875H48.1855ZM57.332 21.874C57.332 21.1403 57.4733 20.4863 57.7559 19.9121C58.0384 19.3379 58.444 18.8936 58.9727 18.5791C59.5059 18.2646 60.1234 18.1074 60.8252 18.1074C61.8232 18.1074 62.6367 18.4128 63.2656 19.0234C63.8991 19.6341 64.2523 20.4635 64.3252 21.5117L64.3389 22.0176C64.3389 23.1523 64.0221 24.0638 63.3887 24.752C62.7552 25.4355 61.9053 25.7773 60.8389 25.7773C59.7725 25.7773 58.9202 25.4355 58.2822 24.752C57.6488 24.0684 57.332 23.1387 57.332 21.9629V21.874ZM59.3076 22.0176C59.3076 22.7194 59.4398 23.2572 59.7041 23.6309C59.9684 24 60.3467 24.1846 60.8389 24.1846C61.3174 24.1846 61.6911 24.0023 61.96 23.6377C62.2288 23.2686 62.3633 22.6807 62.3633 21.874C62.3633 21.1859 62.2288 20.6527 61.96 20.2744C61.6911 19.8962 61.3128 19.707 60.8252 19.707C60.3421 19.707 59.9684 19.8962 59.7041 20.2744C59.4398 20.6481 59.3076 21.2292 59.3076 22.0176ZM69.7119 20.0967C69.443 20.0602 69.2061 20.042 69.001 20.042C68.2536 20.042 67.7637 20.2949 67.5312 20.8008V25.6406H65.5557V18.2441H67.4219L67.4766 19.126C67.873 18.4469 68.4222 18.1074 69.124 18.1074C69.3428 18.1074 69.5479 18.137 69.7393 18.1963L69.7119 20.0967ZM73.9365 25.7773C72.8519 25.7773 71.9678 25.4447 71.2842 24.7793C70.6051 24.1139 70.2656 23.2275 70.2656 22.1201V21.9287C70.2656 21.1859 70.4092 20.5228 70.6963 19.9395C70.9834 19.3516 71.389 18.9004 71.9131 18.5859C72.4417 18.2669 73.0433 18.1074 73.7178 18.1074C74.7295 18.1074 75.5247 18.4264 76.1035 19.0645C76.6868 19.7025 76.9785 20.6071 76.9785 21.7783V22.585H72.2686C72.3324 23.068 72.5238 23.4554 72.8428 23.7471C73.1663 24.0387 73.5742 24.1846 74.0664 24.1846C74.8275 24.1846 75.4222 23.9089 75.8506 23.3574L76.8213 24.4443C76.5251 24.8636 76.124 25.1917 75.6182 25.4287C75.1123 25.6611 74.5518 25.7773 73.9365 25.7773ZM73.7109 19.707C73.319 19.707 73 19.8392 72.7539 20.1035C72.5124 20.3678 72.3574 20.7461 72.2891 21.2383H75.0371V21.0811C75.028 20.6436 74.9095 20.3063 74.6816 20.0693C74.4538 19.8278 74.1302 19.707 73.7109 19.707ZM83.6777 25.6406H81.6953V18.2441H83.6777V25.6406ZM81.5791 16.3301C81.5791 16.0339 81.6771 15.79 81.873 15.5986C82.0736 15.4072 82.3447 15.3115 82.6865 15.3115C83.0238 15.3115 83.2926 15.4072 83.4932 15.5986C83.6937 15.79 83.7939 16.0339 83.7939 16.3301C83.7939 16.6309 83.6914 16.877 83.4863 17.0684C83.2858 17.2598 83.0192 17.3555 82.6865 17.3555C82.3538 17.3555 82.085 17.2598 81.8799 17.0684C81.6794 16.877 81.5791 16.6309 81.5791 16.3301ZM87.1299 18.2441L87.1914 19.0986C87.7201 18.4378 88.4287 18.1074 89.3174 18.1074C90.1012 18.1074 90.6846 18.3376 91.0674 18.7979C91.4502 19.2581 91.6462 19.9463 91.6553 20.8623V25.6406H89.6797V20.9102C89.6797 20.4909 89.5885 20.1878 89.4062 20.001C89.224 19.8096 88.9209 19.7139 88.4971 19.7139C87.9411 19.7139 87.5241 19.9508 87.2461 20.4248V25.6406H85.2705V18.2441H87.1299ZM93.6992 25.6406V19.6934H92.5986V18.2441H93.6992V17.6152C93.6992 16.7858 93.9362 16.1432 94.4102 15.6875C94.8887 15.2272 95.5563 14.9971 96.4131 14.9971C96.6865 14.9971 97.0215 15.0426 97.418 15.1338L97.3975 16.665C97.2334 16.624 97.0329 16.6035 96.7959 16.6035C96.0531 16.6035 95.6816 16.9521 95.6816 17.6494V18.2441H97.1514V19.6934H95.6816V25.6406H93.6992ZM97.8691 21.874C97.8691 21.1403 98.0104 20.4863 98.293 19.9121C98.5755 19.3379 98.9811 18.8936 99.5098 18.5791C100.043 18.2646 100.66 18.1074 101.362 18.1074C102.36 18.1074 103.174 18.4128 103.803 19.0234C104.436 19.6341 104.789 20.4635 104.862 21.5117L104.876 22.0176C104.876 23.1523 104.559 24.0638 103.926 24.752C103.292 25.4355 102.442 25.7773 101.376 25.7773C100.31 25.7773 99.4574 25.4355 98.8193 24.752C98.1859 24.0684 97.8691 23.1387 97.8691 21.9629V21.874ZM99.8447 22.0176C99.8447 22.7194 99.9769 23.2572 100.241 23.6309C100.506 24 100.884 24.1846 101.376 24.1846C101.854 24.1846 102.228 24.0023 102.497 23.6377C102.766 23.2686 102.9 22.6807 102.9 21.874C102.9 21.1859 102.766 20.6527 102.497 20.2744C102.228 19.8962 101.85 19.707 101.362 19.707C100.879 19.707 100.506 19.8962 100.241 20.2744C99.9769 20.6481 99.8447 21.2292 99.8447 22.0176Z" fill="white"/>
</svg>
