<svg width="81" height="41" viewBox="0 0 81 41" fill="none" xmlns="http://www.w3.org/2000/svg">
<path d="M0.617188 4.64063C0.617188 2.43149 2.40805 0.640625 4.61719 0.640625H76.6172C78.8263 0.640625 80.6172 2.43149 80.6172 4.64062V36.6406C80.6172 38.8498 78.8263 40.6406 76.6172 40.6406H4.61719C2.40805 40.6406 0.617188 38.8498 0.617188 36.6406V4.64063Z" fill="white"/>
<path d="M21.2457 26.448L29.2457 20.448L21.2457 14.448" fill="#141414"/>
<path d="M39.5566 22.1338V25.6406H37.5059V15.6875H41.3887C42.1361 15.6875 42.7923 15.8242 43.3574 16.0977C43.9271 16.3711 44.3646 16.7607 44.6699 17.2666C44.9753 17.7679 45.1279 18.3398 45.1279 18.9824C45.1279 19.9577 44.793 20.7279 44.123 21.293C43.4577 21.8535 42.5348 22.1338 41.3545 22.1338H39.5566ZM39.5566 20.4727H41.3887C41.931 20.4727 42.3434 20.3451 42.626 20.0898C42.9131 19.8346 43.0566 19.4701 43.0566 18.9961C43.0566 18.5085 42.9131 18.1143 42.626 17.8135C42.3389 17.5127 41.9424 17.3577 41.4365 17.3486H39.5566V20.4727ZM48.498 25.6406H46.5156V15.1406H48.498V25.6406ZM54.418 25.6406C54.3268 25.4629 54.2607 25.2419 54.2197 24.9775C53.7412 25.5107 53.1191 25.7773 52.3535 25.7773C51.6289 25.7773 51.0273 25.5677 50.5488 25.1484C50.0749 24.7292 49.8379 24.2005 49.8379 23.5625C49.8379 22.7786 50.1273 22.1771 50.7061 21.7578C51.2894 21.3385 52.1302 21.1266 53.2285 21.1221H54.1377V20.6982C54.1377 20.3564 54.0488 20.083 53.8711 19.8779C53.6979 19.6729 53.4222 19.5703 53.0439 19.5703C52.7113 19.5703 52.4492 19.6501 52.2578 19.8096C52.071 19.9691 51.9775 20.1878 51.9775 20.4658H50.002C50.002 20.0374 50.1341 19.641 50.3984 19.2764C50.6628 18.9118 51.0365 18.627 51.5195 18.4219C52.0026 18.2122 52.5449 18.1074 53.1465 18.1074C54.0579 18.1074 54.7803 18.3376 55.3135 18.7979C55.8512 19.2536 56.1201 19.8962 56.1201 20.7256V23.9316C56.1247 24.6335 56.2227 25.1644 56.4141 25.5244V25.6406H54.418ZM52.7842 24.2666C53.0758 24.2666 53.3447 24.2028 53.5908 24.0752C53.8369 23.943 54.0192 23.7676 54.1377 23.5488V22.2773H53.3994C52.4105 22.2773 51.8841 22.6191 51.8203 23.3027L51.8135 23.4189C51.8135 23.665 51.9001 23.8678 52.0732 24.0273C52.2464 24.1868 52.4834 24.2666 52.7842 24.2666ZM60.29 22.8447L61.6572 18.2441H63.7764L60.8027 26.7891L60.6387 27.1787C60.1966 28.1449 59.4674 28.6279 58.4512 28.6279C58.1641 28.6279 57.8724 28.5846 57.5762 28.498V27.001L57.877 27.0078C58.2507 27.0078 58.5286 26.9508 58.7109 26.8369C58.8978 26.723 59.0436 26.5339 59.1484 26.2695L59.3809 25.6611L56.79 18.2441H58.916L60.29 22.8447Z" fill="#2B2B2B"/>
</svg>
